<svg width="40" height="61" viewBox="0 0 40 61" fill="none" xmlns="http://www.w3.org/2000/svg">
<path d="M38.128 5.15748C35.3616 -0.435434 30.9715 -1.03682 26.6415 1.24846C23.1534 3.11276 13.2305 9.12665 13.2305 9.12665V16.223C13.2305 16.223 24.5366 9.6679 26.6415 8.5854C29.2275 7.2022 31.8736 7.62318 33.5575 10.9308C35.2414 14.2986 35.1812 19.9516 32.475 24.4621C30.3701 28.0103 28.3855 29.634 26.5212 30.6564C24.6569 31.6787 13.2305 38.4143 13.2305 38.4143V45.5107C13.2305 45.5107 23.3339 39.7373 26.4611 38.0535C29.5282 36.3696 32.7757 33.6633 36.3239 27.7697C40.8343 20.1922 40.8944 10.7504 38.128 5.15748Z" fill="white"/>
<path d="M28.2653 21.2747C29.1674 19.7712 29.1674 17.9069 28.6261 16.8244C28.0849 15.7419 27.1828 15.6216 26.3408 16.0426C25.6793 16.4034 13.1704 23.4998 13.1704 23.4998V30.5962C13.1704 30.5962 25.6793 23.6201 26.2807 23.2593C26.9422 22.9586 27.6037 22.4173 28.2653 21.2747Z" fill="white"/>
<path d="M13.2305 60.1244L19.8458 56.3357V49.2393L13.2305 53.028V60.1244Z" fill="white"/>
<path d="M13.2306 16.223L6.6153 12.3741V5.27774L13.2306 9.12663V16.223Z" fill="#E5E5E5"/>
<path d="M13.2306 30.5962L0 23.0187V15.9223L13.2306 23.4998V30.5962Z" fill="#E5E5E5"/>
<path d="M13.2306 45.4505L9.86279 43.5261V36.4297L13.2306 38.3541V45.4505Z" fill="#E5E5E5"/>
<path d="M13.2306 60.1244L3.42792 54.4714V47.375L13.2306 53.028V60.1244Z" fill="#E5E5E5"/>
</svg>
