<svg width="200" height="50" viewBox="0 0 200 50" fill="none" xmlns="http://www.w3.org/2000/svg">
<path d="M153.2 5.5C154.7 5.5 156 6.8 156 8.3C156 9.8 154.7 11.1 153.2 11.1C151.7 11.1 150.4 9.8 150.4 8.3C150.4 6.8 151.7 5.5 153.2 5.5Z" fill="#282827"/>
<path d="M150.3 13.3H155.9V31.5H150.3V13.3Z" fill="#282827"/>
<path d="M80.2 5.5H78.3H71.3V24.8V31.5H76.9V24.8V23.4H78.3H80.2C85.1 23.4 89.1 19.4 89.1 14.5C89.1 9.6 85.2 5.5 80.2 5.5ZM80.2 17.8H78.3H76.9V16.4V12.6V11.2H78.3H80.2C82 11.2 83.5 12.7 83.5 14.5C83.5 16.3 82.1 17.8 80.2 17.8Z" fill="#282827"/>
<path d="M108.8 13.6H103.2V22.5C103.2 24.3 101.7 25.8 99.9 25.8C98.1 25.8 96.6 24.3 96.6 22.5V13.6H91V22.5C91 27.4 95 31.4 99.9 31.4C104.8 31.4 108.8 27.4 108.8 22.5V13.6Z" fill="#282827"/>
<path d="M167.2 13.6C162.3 13.6 158.3 17.6 158.3 22.5V31.4H163.9V22.5C163.9 20.7 165.4 19.2 167.2 19.2C169 19.2 170.5 20.7 170.5 22.5V31.4H176.1V22.5C176.1 17.6 172.1 13.6 167.2 13.6Z" fill="#282827"/>
<path d="M122.8 12.2V13.6H121.4H119.5C114.6 13.6 110.6 17.6 110.6 22.5C110.6 27.4 114.6 31.4 119.5 31.4H121.4H128.4V12.2V5.5L122.8 8.8V12.2ZM122.9 20.6V24.4V25.8H121.5H119.6C117.8 25.8 116.3 24.3 116.3 22.5C116.3 20.7 117.8 19.2 119.6 19.2H121.5H122.9V20.6Z" fill="#282827"/>
<path d="M142.4 12.2V13.6H141H139.1C134.2 13.6 130.2 17.6 130.2 22.5C130.2 27.4 134.2 31.4 139.1 31.4H141H148V12.2V5.5L142.4 8.8V12.2ZM142.5 20.6V24.4V25.8H141H139.1C137.3 25.8 135.8 24.3 135.8 22.5C135.8 20.7 137.3 19.2 139.1 19.2H141H142.4V20.6H142.5Z" fill="#282827"/>
<path d="M186.8 13.6C181.9 13.6 177.9 17.6 177.9 22.5C177.9 27.4 181.9 31.4 186.8 31.4H188.7H190.1V32.8V33.7V35.1V36.5C190.1 38.3 188.6 39.8 186.8 39.8C185 39.8 183.5 38.3 183.5 36.5V34L177.9 37.3C178.3 41.8 182.1 45.4 186.8 45.4C191.7 45.4 195.7 41.4 195.7 36.5V35.1V32.8V13.6H188.7H186.8ZM190.1 19.4V20.8V24.6V26H188.7H186.8C185 26 183.5 24.5 183.5 22.7C183.5 20.9 185 19.4 186.8 19.4H188.7H190.1Z" fill="#282827"/>
<path d="M31.7 13.6C30.5 13.6 29.4 13.8 28.4 14.2V5.5L22.8 8.8V22.5V24.5V31.4H28.4V24.5V22.5C28.4 20.7 29.9 19.2 31.7 19.2C33.5 19.2 35 20.7 35 22.5V31.4H40.6V22.5C40.6 17.6 36.6 13.6 31.7 13.6Z" fill="#282827"/>
<path d="M20.9 5.5H3.1V11.1H9.2V31.4H14.8V11.1H20.9V5.5Z" fill="#282827"/>
<path d="M51.4 26.2C51 26.2 50.2 26.1 49.6 25.8L54.8 23.7L60.4 21.4L59.4 19.1L59.3 18.9C59.2 18.6 59 18.3 58.8 17.9C58.7 17.8 58.7 17.7 58.6 17.6C58.6 17.6 58.6 17.5 58.5 17.5L58.4 17.4L58.3 17.3C56.7 15.1 54.3 13.8 51.6 13.6H51C46.1 13.6 42.1 17.6 42.1 22.5C42.1 22.9 42.1 23.4 42.2 23.9V24C42.2 24 42.2 24 42.2 24.1C42.2 24.1 42.2 24.1 42.2 24.2C42.2 24.5 42.3 24.7 42.4 25V25.1V25.2C42.5 25.5 42.6 25.9 42.8 26.2V26.3V26.4C42.9 26.7 43.1 26.9 43.2 27.2C43.2 27.3 43.3 27.3 43.3 27.4C43.4 27.6 43.6 27.8 43.7 28C43.7 28 43.7 28 43.7 28.1C43.7 28.1 43.7 28.2 43.8 28.2L43.9 28.3C45.6 30.4 48.3 31.7 51.1 31.7H57.2V26.5C57.6 26.2 53.7 26.2 51.4 26.2ZM47.7 21.7L47.5 21.8C47.7 19.9 49.3 18.3 51.2 18.3C52.1 18.3 53 18.7 53.6 19.2L49.3 21L47.7 21.7Z" fill="#282827"/>
</svg>
